<svg width="73" height="73" viewBox="0 0 73 73" fill="none" xmlns="http://www.w3.org/2000/svg">
<path d="M16.9901 65.1349C15.4621 63.6069 15.2445 58.999 15.2135 54.75H57.7865C57.7555 58.999 57.5379 63.6069 56.0099 65.1349C54.2281 66.9167 51.3604 66.9167 45.625 66.9167H27.375C21.6396 66.9167 18.7719 66.9167 16.9901 65.1349Z" fill="#E6C9A2"/>
<path opacity="0.5" d="M6.08334 30.4167C6.08334 22.0173 12.8923 15.2083 21.2917 15.2083C22.0537 15.2083 22.8026 15.2644 23.5345 15.3726C25.3663 9.97076 30.4792 6.08334 36.5 6.08334C42.5208 6.08334 47.6337 9.97076 49.4655 15.3726C50.1974 15.2644 50.9463 15.2083 51.7083 15.2083C60.1077 15.2083 66.9167 22.0173 66.9167 30.4167C66.9167 36.6531 63.163 42.0127 57.7917 44.3595L57.7917 54.75H15.2083V44.3595C9.83704 42.0127 6.08334 36.6531 6.08334 30.4167Z" fill="#FFF8E1"/>
<path d="M33.5887 41.5774C30.9181 39.6179 27.375 36.454 27.375 33.4597C27.375 28.3703 32.3939 26.4701 36.5 30.4016C40.6061 26.4701 45.625 28.3703 45.625 33.4596C45.625 36.454 42.0819 39.6179 39.4113 41.5774C38.1346 42.5142 37.4962 42.9826 36.5 42.9826C35.5038 42.9826 34.8655 42.5142 33.5887 41.5774L33.5887 41.5774Z" fill="#E6C9A2"/>
</svg>
