<svg width="145" height="30" viewBox="0 0 145 30" fill="none" xmlns="http://www.w3.org/2000/svg">
<path d="M6.98223 26.7678C6.35429 26.1398 6.26485 24.2462 6.25211 22.5H23.7479C23.7351 24.2462 23.6457 26.1398 23.0178 26.7678C22.2855 27.5 21.107 27.5 18.75 27.5H11.25C8.89297 27.5 7.71446 27.5 6.98223 26.7678Z" fill="#E6C9A2"/>
<path opacity="0.5" d="M2.5 12.5C2.5 9.04822 5.29822 6.25 8.75 6.25C9.06315 6.25 9.37092 6.27303 9.6717 6.31749C10.4245 4.09757 12.5257 2.5 15 2.5C17.4743 2.5 19.5755 4.09757 20.3283 6.31749C20.6291 6.27303 20.9369 6.25 21.25 6.25C24.7018 6.25 27.5 9.04822 27.5 12.5C27.5 15.0629 25.9574 17.2655 23.75 18.2299L23.75 22.5H6.25V18.2299C4.04262 17.2655 2.5 15.0629 2.5 12.5Z" fill="#FFF8E1"/>
<path d="M13.8036 17.0866C12.7061 16.2813 11.25 14.9811 11.25 13.7505C11.25 11.659 13.3126 10.8781 15 12.4938C16.6874 10.8781 18.75 11.659 18.75 13.7505C18.75 14.9811 17.2939 16.2813 16.1964 17.0866C15.6717 17.4716 15.4094 17.6641 15 17.6641C14.5906 17.6641 14.3283 17.4716 13.8036 17.0866L13.8036 17.0866Z" fill="#E6C9A2"/>
<path d="M44 8.84C43.9467 9.37333 43.9067 9.89333 43.88 10.4C43.8667 10.9067 43.86 11.2933 43.86 11.56C43.86 11.8667 43.8667 12.16 43.88 12.44C43.8933 12.72 43.9067 12.96 43.92 13.16H43.46C43.34 12.1867 43.1733 11.4267 42.96 10.88C42.76 10.32 42.4533 9.92 42.04 9.68C41.6267 9.42667 41.0333 9.3 40.26 9.3H39.2C38.7733 9.3 38.4467 9.34 38.22 9.42C38.0067 9.48667 37.86 9.63333 37.78 9.86C37.7 10.0733 37.66 10.4133 37.66 10.88V20.84C37.66 21.3333 37.7133 21.7067 37.82 21.96C37.9267 22.2 38.1267 22.36 38.42 22.44C38.7133 22.52 39.1467 22.5667 39.72 22.58V23C39.36 22.9733 38.8933 22.96 38.32 22.96C37.7467 22.9467 37.1533 22.94 36.54 22.94C36.0067 22.94 35.4933 22.9467 35 22.96C34.52 22.96 34.1133 22.9733 33.78 23V22.6C34.2333 22.5733 34.5733 22.52 34.8 22.44C35.0267 22.36 35.1733 22.2 35.24 21.96C35.32 21.72 35.36 21.36 35.36 20.88V10.96C35.36 10.4667 35.32 10.1067 35.24 9.88C35.1733 9.64 35.02 9.48 34.78 9.4C34.5533 9.30667 34.22 9.25333 33.78 9.24V8.84C34.3 8.85333 34.84 8.86667 35.4 8.88C35.9733 8.88 36.5333 8.88667 37.08 8.9C37.64 8.9 38.16 8.9 38.64 8.9C39.12 8.9 39.5133 8.9 39.82 8.9C40.4333 8.9 41.1267 8.9 41.9 8.9C42.6867 8.88667 43.3867 8.86667 44 8.84ZM40.94 15.84C40.94 15.84 40.94 15.9067 40.94 16.04C40.94 16.1733 40.94 16.24 40.94 16.24H37.06C37.06 16.24 37.06 16.1733 37.06 16.04C37.06 15.9067 37.06 15.84 37.06 15.84H40.94ZM41.36 13.2C41.3067 13.96 41.28 14.54 41.28 14.94C41.2933 15.34 41.3 15.7067 41.3 16.04C41.3 16.3733 41.3067 16.74 41.32 17.14C41.3333 17.54 41.3667 18.12 41.42 18.88H40.96C40.9067 18.44 40.8267 18.02 40.72 17.62C40.6133 17.2067 40.42 16.8733 40.14 16.62C39.86 16.3667 39.44 16.24 38.88 16.24V15.84C39.3067 15.84 39.64 15.7533 39.88 15.58C40.1333 15.4067 40.3267 15.18 40.46 14.9C40.5933 14.62 40.6867 14.3333 40.74 14.04C40.8067 13.7333 40.86 13.4533 40.9 13.2H41.36ZM48.8262 7.32V21.14C48.8262 21.7 48.9329 22.08 49.1462 22.28C49.3729 22.48 49.7462 22.58 50.2662 22.58V23C50.0396 22.9867 49.6862 22.9733 49.2062 22.96C48.7262 22.9333 48.2462 22.92 47.7662 22.92C47.2862 22.92 46.7996 22.9333 46.3062 22.96C45.8262 22.9733 45.4662 22.9867 45.2262 23V22.58C45.7462 22.58 46.1129 22.48 46.3262 22.28C46.5529 22.08 46.6662 21.7 46.6662 21.14V9.72C46.6662 9.12 46.5662 8.68 46.3662 8.4C46.1662 8.10667 45.7862 7.96 45.2262 7.96V7.54C45.6529 7.58 46.0662 7.6 46.4662 7.6C46.9062 7.6 47.3262 7.58 47.7262 7.54C48.1262 7.48667 48.4929 7.41333 48.8262 7.32ZM54.4452 23.14C53.8852 23.14 53.4052 23.0333 53.0052 22.82C52.6052 22.6067 52.3052 22.3133 52.1052 21.94C51.9052 21.5667 51.8052 21.14 51.8052 20.66C51.8052 20.0733 51.9385 19.6 52.2052 19.24C52.4718 18.8667 52.8118 18.5667 53.2252 18.34C53.6518 18.1133 54.0985 17.9267 54.5652 17.78C55.0452 17.62 55.4918 17.4733 55.9052 17.34C56.3318 17.1933 56.6785 17.0267 56.9452 16.84C57.2252 16.6533 57.3652 16.4067 57.3652 16.1V14.74C57.3652 14.26 57.2852 13.88 57.1252 13.6C56.9785 13.3067 56.7718 13.1 56.5052 12.98C56.2518 12.86 55.9452 12.8 55.5852 12.8C55.2785 12.8 54.9518 12.8467 54.6052 12.94C54.2585 13.02 53.9852 13.1867 53.7852 13.44C54.0785 13.52 54.3185 13.68 54.5052 13.92C54.7052 14.1467 54.8052 14.4333 54.8052 14.78C54.8052 15.1533 54.6785 15.4467 54.4252 15.66C54.1852 15.8733 53.8785 15.98 53.5052 15.98C53.0918 15.98 52.7852 15.8533 52.5852 15.6C52.3852 15.3333 52.2852 15.0267 52.2852 14.68C52.2852 14.32 52.3718 14.0267 52.5452 13.8C52.7318 13.5733 52.9718 13.36 53.2652 13.16C53.5852 12.9467 53.9918 12.7667 54.4852 12.62C54.9918 12.4733 55.5518 12.4 56.1652 12.4C56.7385 12.4 57.2318 12.4667 57.6452 12.6C58.0718 12.72 58.4252 12.92 58.7052 13.2C59.0385 13.5067 59.2585 13.8933 59.3652 14.36C59.4718 14.8133 59.5252 15.3667 59.5252 16.02V21.54C59.5252 21.8733 59.5652 22.1133 59.6452 22.26C59.7385 22.3933 59.8852 22.46 60.0852 22.46C60.2185 22.46 60.3452 22.4267 60.4652 22.36C60.5985 22.2933 60.7518 22.1933 60.9252 22.06L61.1252 22.4C60.8452 22.6267 60.5585 22.8067 60.2652 22.94C59.9852 23.0733 59.6252 23.14 59.1852 23.14C58.7585 23.14 58.4118 23.0733 58.1452 22.94C57.8785 22.8067 57.6785 22.6133 57.5452 22.36C57.4252 22.1067 57.3652 21.7933 57.3652 21.42C57.0185 21.98 56.6052 22.4067 56.1252 22.7C55.6452 22.9933 55.0852 23.14 54.4452 23.14ZM55.4052 22.18C55.7785 22.18 56.1252 22.0733 56.4452 21.86C56.7785 21.6467 57.0852 21.3267 57.3652 20.9V16.92C57.2185 17.1333 57.0052 17.32 56.7252 17.48C56.4452 17.6267 56.1452 17.78 55.8252 17.94C55.5052 18.1 55.1985 18.2867 54.9052 18.5C54.6252 18.7 54.3918 18.96 54.2052 19.28C54.0185 19.6 53.9252 20.0067 53.9252 20.5C53.9252 21.02 54.0585 21.4333 54.3252 21.74C54.5918 22.0333 54.9518 22.18 55.4052 22.18ZM71.3061 12.68V13.08C71.0528 13.12 70.8128 13.2533 70.5861 13.48C70.3728 13.6933 70.1728 14.0667 69.9861 14.6L66.8261 23.08C66.7194 23.08 66.6061 23.08 66.4861 23.08C66.3794 23.08 66.2728 23.08 66.1661 23.08L62.5261 14.22C62.3128 13.7 62.0994 13.3867 61.8861 13.28C61.6861 13.16 61.5128 13.1 61.3661 13.1V12.68C61.6861 12.7067 62.0128 12.7333 62.3461 12.76C62.6928 12.7733 63.0728 12.78 63.4861 12.78C63.8994 12.78 64.3328 12.7733 64.7861 12.76C65.2528 12.7333 65.6861 12.7067 66.0861 12.68V13.1C65.7661 13.1 65.4794 13.12 65.2261 13.16C64.9861 13.2 64.8261 13.32 64.7461 13.52C64.6794 13.7067 64.7261 14.0333 64.8861 14.5L67.3461 20.7L67.1861 20.86L69.2461 15.4C69.4461 14.8667 69.5261 14.44 69.4861 14.12C69.4461 13.7867 69.3061 13.54 69.0661 13.38C68.8261 13.2067 68.4794 13.1067 68.0261 13.08V12.68C68.2528 12.6933 68.4594 12.7067 68.6461 12.72C68.8461 12.72 69.0328 12.7267 69.2061 12.74C69.3928 12.74 69.5861 12.74 69.7861 12.74C70.0794 12.74 70.3528 12.7333 70.6061 12.72C70.8728 12.7067 71.1061 12.6933 71.3061 12.68ZM77.0736 12.4C77.9669 12.4 78.7603 12.5867 79.4536 12.96C80.1469 13.3333 80.7003 13.92 81.1136 14.72C81.5269 15.52 81.7336 16.5667 81.7336 17.86C81.7336 19.1533 81.5269 20.2 81.1136 21C80.7003 21.7867 80.1469 22.3667 79.4536 22.74C78.7603 23.1 77.9669 23.28 77.0736 23.28C76.1936 23.28 75.4003 23.1 74.6936 22.74C73.9869 22.3667 73.4269 21.7867 73.0136 21C72.6136 20.2 72.4136 19.1533 72.4136 17.86C72.4136 16.5667 72.6136 15.52 73.0136 14.72C73.4269 13.92 73.9869 13.3333 74.6936 12.96C75.4003 12.5867 76.1936 12.4 77.0736 12.4ZM77.0736 12.8C76.3803 12.8 75.8136 13.2 75.3736 14C74.9336 14.7867 74.7136 16.0733 74.7136 17.86C74.7136 19.6467 74.9336 20.9333 75.3736 21.72C75.8136 22.4933 76.3803 22.88 77.0736 22.88C77.7536 22.88 78.3136 22.4933 78.7536 21.72C79.2069 20.9333 79.4336 19.6467 79.4336 17.86C79.4336 16.0733 79.2069 14.7867 78.7536 14C78.3136 13.2 77.7536 12.8 77.0736 12.8ZM89.9878 12.4C90.3745 12.4 90.7011 12.48 90.9678 12.64C91.2478 12.8 91.4545 13.0067 91.5878 13.26C91.7345 13.5 91.8078 13.7733 91.8078 14.08C91.8078 14.4667 91.6878 14.8 91.4478 15.08C91.2211 15.3467 90.9145 15.48 90.5278 15.48C90.1945 15.48 89.9078 15.38 89.6678 15.18C89.4411 14.98 89.3278 14.7067 89.3278 14.36C89.3278 14.0667 89.4011 13.82 89.5478 13.62C89.7078 13.4067 89.8878 13.24 90.0878 13.12C89.9545 13.0133 89.7945 12.9667 89.6078 12.98C89.2478 12.9933 88.9145 13.1133 88.6078 13.34C88.3011 13.5533 88.0411 13.8333 87.8278 14.18C87.6145 14.5133 87.4478 14.8733 87.3278 15.26C87.2078 15.6467 87.1478 16.0067 87.1478 16.34V20.94C87.1478 21.5933 87.3278 22.0333 87.6878 22.26C88.0478 22.4733 88.5478 22.58 89.1878 22.58V23C88.8811 22.9867 88.4411 22.9733 87.8678 22.96C87.3078 22.9333 86.7145 22.92 86.0878 22.92C85.6078 22.92 85.1278 22.9333 84.6478 22.96C84.1678 22.9733 83.8011 22.9867 83.5478 23V22.58C84.0678 22.58 84.4345 22.48 84.6478 22.28C84.8745 22.08 84.9878 21.7 84.9878 21.14V14.86C84.9878 14.26 84.8878 13.82 84.6878 13.54C84.4878 13.2467 84.1078 13.1 83.5478 13.1V12.68C83.9745 12.72 84.3878 12.74 84.7878 12.74C85.2411 12.74 85.6611 12.72 86.0478 12.68C86.4478 12.6267 86.8145 12.5533 87.1478 12.46V14.76C87.3078 14.3733 87.5211 14 87.7878 13.64C88.0545 13.28 88.3745 12.9867 88.7478 12.76C89.1211 12.52 89.5345 12.4 89.9878 12.4ZM96.7108 12.4C97.2441 12.4 97.7041 12.4867 98.0908 12.66C98.4908 12.82 98.7774 12.9667 98.9508 13.1C99.3908 13.4467 99.6641 13.22 99.7708 12.42H100.211C100.184 12.7933 100.164 13.2467 100.151 13.78C100.137 14.3 100.131 14.9933 100.131 15.86H99.6908C99.6108 15.3667 99.4708 14.8867 99.2708 14.42C99.0841 13.9533 98.8041 13.5667 98.4308 13.26C98.0708 12.9533 97.5974 12.8 97.0108 12.8C96.5708 12.8 96.2041 12.9267 95.9108 13.18C95.6174 13.42 95.4708 13.78 95.4708 14.26C95.4708 14.66 95.5908 15.0067 95.8308 15.3C96.0708 15.5933 96.3774 15.8667 96.7508 16.12C97.1374 16.3733 97.5508 16.6467 97.9908 16.94C98.4841 17.2733 98.9241 17.6067 99.3108 17.94C99.7108 18.26 100.024 18.62 100.251 19.02C100.491 19.42 100.611 19.8867 100.611 20.42C100.611 21.0333 100.444 21.5533 100.111 21.98C99.7908 22.4067 99.3641 22.7333 98.8308 22.96C98.2974 23.1733 97.7108 23.28 97.0708 23.28C96.7508 23.28 96.4508 23.2467 96.1708 23.18C95.8908 23.1267 95.6308 23.0533 95.3908 22.96C95.2441 22.88 95.0974 22.8 94.9508 22.72C94.8174 22.6267 94.6841 22.54 94.5508 22.46C94.4174 22.3667 94.2974 22.38 94.1908 22.5C94.0841 22.62 94.0041 22.8333 93.9508 23.14H93.5108C93.5374 22.7133 93.5574 22.1933 93.5708 21.58C93.5841 20.9667 93.5908 20.1533 93.5908 19.14H94.0308C94.1241 19.8733 94.2641 20.52 94.4508 21.08C94.6374 21.64 94.9108 22.08 95.2708 22.4C95.6441 22.7067 96.1508 22.86 96.7908 22.86C97.0441 22.86 97.2974 22.8067 97.5508 22.7C97.8041 22.58 98.0108 22.3933 98.1708 22.14C98.3441 21.8867 98.4308 21.5467 98.4308 21.12C98.4308 20.5333 98.2241 20.0533 97.8108 19.68C97.4108 19.2933 96.8908 18.8867 96.2508 18.46C95.7974 18.14 95.3641 17.8267 94.9508 17.52C94.5508 17.2 94.2241 16.8467 93.9708 16.46C93.7174 16.06 93.5908 15.5867 93.5908 15.04C93.5908 14.44 93.7308 13.9467 94.0108 13.56C94.3041 13.1733 94.6908 12.8867 95.1708 12.7C95.6508 12.5 96.1641 12.4 96.7108 12.4ZM107.514 12.4C107.967 12.4 108.4 12.46 108.814 12.58C109.227 12.6867 109.587 12.84 109.894 13.04C110.214 13.24 110.454 13.48 110.614 13.76C110.787 14.04 110.874 14.3467 110.874 14.68C110.874 15.08 110.76 15.3933 110.534 15.62C110.307 15.8467 110.014 15.96 109.654 15.96C109.294 15.96 108.994 15.86 108.754 15.66C108.514 15.46 108.394 15.1733 108.394 14.8C108.394 14.4533 108.494 14.1733 108.694 13.96C108.894 13.7333 109.127 13.5867 109.394 13.52C109.274 13.32 109.06 13.1533 108.754 13.02C108.46 12.8733 108.14 12.8 107.794 12.8C107.434 12.8 107.087 12.8933 106.754 13.08C106.434 13.2667 106.147 13.5533 105.894 13.94C105.64 14.3267 105.434 14.8267 105.274 15.44C105.127 16.0533 105.054 16.7933 105.054 17.66C105.054 18.78 105.18 19.6733 105.434 20.34C105.7 20.9933 106.047 21.46 106.474 21.74C106.9 22.02 107.36 22.16 107.854 22.16C108.174 22.16 108.5 22.1 108.834 21.98C109.18 21.86 109.507 21.66 109.814 21.38C110.134 21.1 110.414 20.72 110.654 20.24L111.034 20.38C110.887 20.82 110.654 21.2667 110.334 21.72C110.027 22.1733 109.62 22.5467 109.114 22.84C108.607 23.1333 107.987 23.28 107.254 23.28C106.414 23.28 105.654 23.0733 104.974 22.66C104.294 22.2467 103.754 21.6467 103.354 20.86C102.954 20.06 102.754 19.0867 102.754 17.94C102.754 16.82 102.954 15.8467 103.354 15.02C103.767 14.18 104.334 13.5333 105.054 13.08C105.774 12.6267 106.594 12.4 107.514 12.4ZM115.439 23.14C114.879 23.14 114.399 23.0333 113.999 22.82C113.599 22.6067 113.299 22.3133 113.099 21.94C112.899 21.5667 112.799 21.14 112.799 20.66C112.799 20.0733 112.932 19.6 113.199 19.24C113.466 18.8667 113.806 18.5667 114.219 18.34C114.646 18.1133 115.092 17.9267 115.559 17.78C116.039 17.62 116.486 17.4733 116.899 17.34C117.326 17.1933 117.672 17.0267 117.939 16.84C118.219 16.6533 118.359 16.4067 118.359 16.1V14.74C118.359 14.26 118.279 13.88 118.119 13.6C117.972 13.3067 117.766 13.1 117.499 12.98C117.246 12.86 116.939 12.8 116.579 12.8C116.272 12.8 115.946 12.8467 115.599 12.94C115.252 13.02 114.979 13.1867 114.779 13.44C115.072 13.52 115.312 13.68 115.499 13.92C115.699 14.1467 115.799 14.4333 115.799 14.78C115.799 15.1533 115.672 15.4467 115.419 15.66C115.179 15.8733 114.872 15.98 114.499 15.98C114.086 15.98 113.779 15.8533 113.579 15.6C113.379 15.3333 113.279 15.0267 113.279 14.68C113.279 14.32 113.366 14.0267 113.539 13.8C113.726 13.5733 113.966 13.36 114.259 13.16C114.579 12.9467 114.986 12.7667 115.479 12.62C115.986 12.4733 116.546 12.4 117.159 12.4C117.732 12.4 118.226 12.4667 118.639 12.6C119.066 12.72 119.419 12.92 119.699 13.2C120.032 13.5067 120.252 13.8933 120.359 14.36C120.466 14.8133 120.519 15.3667 120.519 16.02V21.54C120.519 21.8733 120.559 22.1133 120.639 22.26C120.732 22.3933 120.879 22.46 121.079 22.46C121.212 22.46 121.339 22.4267 121.459 22.36C121.592 22.2933 121.746 22.1933 121.919 22.06L122.119 22.4C121.839 22.6267 121.552 22.8067 121.259 22.94C120.979 23.0733 120.619 23.14 120.179 23.14C119.752 23.14 119.406 23.0733 119.139 22.94C118.872 22.8067 118.672 22.6133 118.539 22.36C118.419 22.1067 118.359 21.7933 118.359 21.42C118.012 21.98 117.599 22.4067 117.119 22.7C116.639 22.9933 116.079 23.14 115.439 23.14ZM116.399 22.18C116.772 22.18 117.119 22.0733 117.439 21.86C117.772 21.6467 118.079 21.3267 118.359 20.9V16.92C118.212 17.1333 117.999 17.32 117.719 17.48C117.439 17.6267 117.139 17.78 116.819 17.94C116.499 18.1 116.192 18.2867 115.899 18.5C115.619 18.7 115.386 18.96 115.199 19.28C115.012 19.6 114.919 20.0067 114.919 20.5C114.919 21.02 115.052 21.4333 115.319 21.74C115.586 22.0333 115.946 22.18 116.399 22.18ZM126.597 12.46V24.72C126.597 25.3067 126.763 25.7 127.097 25.9C127.43 26.1 127.89 26.2 128.477 26.2V26.62C128.17 26.6067 127.743 26.5867 127.197 26.56C126.65 26.5467 126.063 26.54 125.437 26.54C124.997 26.54 124.563 26.5467 124.137 26.56C123.71 26.5867 123.383 26.6067 123.157 26.62V26.2C123.623 26.2 123.95 26.1067 124.137 25.92C124.337 25.7467 124.437 25.4133 124.437 24.92V14.86C124.437 14.26 124.337 13.82 124.137 13.54C123.937 13.2467 123.557 13.1 122.997 13.1V12.68C123.423 12.72 123.837 12.74 124.237 12.74C124.677 12.74 125.097 12.72 125.497 12.68C125.897 12.6267 126.263 12.5533 126.597 12.46ZM129.777 12.4C130.47 12.4 131.09 12.5933 131.637 12.98C132.197 13.3533 132.637 13.9067 132.957 14.64C133.277 15.3733 133.437 16.2867 133.437 17.38C133.437 18.18 133.343 18.94 133.157 19.66C132.97 20.3667 132.683 20.9933 132.297 21.54C131.923 22.0733 131.45 22.5 130.877 22.82C130.303 23.1267 129.623 23.28 128.837 23.28C128.25 23.28 127.73 23.1533 127.277 22.9C126.837 22.6467 126.523 22.3267 126.337 21.94L126.537 21.66C126.71 21.9933 126.95 22.2667 127.257 22.48C127.577 22.6933 127.97 22.8 128.437 22.8C129.13 22.8 129.67 22.58 130.057 22.14C130.457 21.6867 130.737 21.08 130.897 20.32C131.057 19.5467 131.137 18.6733 131.137 17.7C131.137 16.6067 131.057 15.7267 130.897 15.06C130.737 14.38 130.497 13.8867 130.177 13.58C129.857 13.26 129.47 13.1 129.017 13.1C128.417 13.1 127.87 13.34 127.377 13.82C126.897 14.3 126.603 15.02 126.497 15.98L126.297 15.56C126.47 14.56 126.87 13.7867 127.497 13.24C128.137 12.68 128.897 12.4 129.777 12.4ZM140.215 12.4C141.388 12.4 142.308 12.7533 142.975 13.46C143.642 14.1667 143.975 15.2867 143.975 16.82H137.075L137.035 16.44H141.855C141.868 15.7867 141.815 15.1867 141.695 14.64C141.575 14.08 141.388 13.6333 141.135 13.3C140.882 12.9667 140.548 12.8 140.135 12.8C139.562 12.8 139.062 13.1067 138.635 13.72C138.222 14.32 137.968 15.2867 137.875 16.62L137.935 16.72C137.922 16.9067 137.908 17.1133 137.895 17.34C137.882 17.5533 137.875 17.7667 137.875 17.98C137.875 18.9 138.015 19.6733 138.295 20.3C138.575 20.9267 138.942 21.4 139.395 21.72C139.848 22.0267 140.308 22.18 140.775 22.18C141.135 22.18 141.482 22.1267 141.815 22.02C142.162 21.9 142.488 21.7067 142.795 21.44C143.102 21.16 143.375 20.78 143.615 20.3L144.015 20.46C143.855 20.9133 143.608 21.36 143.275 21.8C142.942 22.24 142.515 22.6 141.995 22.88C141.475 23.1467 140.868 23.28 140.175 23.28C139.242 23.28 138.428 23.0733 137.735 22.66C137.042 22.2333 136.508 21.6267 136.135 20.84C135.762 20.0533 135.575 19.12 135.575 18.04C135.575 16.8533 135.768 15.84 136.155 15C136.542 14.16 137.082 13.52 137.775 13.08C138.482 12.6267 139.295 12.4 140.215 12.4Z" fill="#FFF8E1"/>
</svg>
