<?xml version="1.0" standalone="no"?>
<svg xmlns:xlink="http://www.w3.org/1999/xlink" id="wave" style="transform:rotate(0deg); transition: 0.3s" viewBox="0 0 1440 210" version="1.1" xmlns="http://www.w3.org/2000/svg"><defs><linearGradient id="sw-gradient-0" x1="0" x2="0" y1="1" y2="0"><stop stop-color="rgba(255, 248, 225, 1)" offset="0%"/><stop stop-color="rgba(255, 248, 225, 1)" offset="100%"/></linearGradient></defs><path style="transform:translate(0, 0px); opacity:1" fill="url(#sw-gradient-0)" d="M0,42L15,49C30,56,60,70,90,70C120,70,150,56,180,56C210,56,240,70,270,80.5C300,91,330,98,360,87.5C390,77,420,49,450,35C480,21,510,21,540,49C570,77,600,133,630,147C660,161,690,133,720,105C750,77,780,49,810,63C840,77,870,133,900,136.5C930,140,960,91,990,91C1020,91,1050,140,1080,143.5C1110,147,1140,105,1170,87.5C1200,70,1230,77,1260,98C1290,119,1320,154,1350,143.5C1380,133,1410,77,1440,59.5C1470,42,1500,63,1530,80.5C1560,98,1590,112,1620,112C1650,112,1680,98,1710,105C1740,112,1770,140,1800,143.5C1830,147,1860,126,1890,112C1920,98,1950,91,1980,84C2010,77,2040,70,2070,80.5C2100,91,2130,119,2145,133L2160,147L2160,210L2145,210C2130,210,2100,210,2070,210C2040,210,2010,210,1980,210C1950,210,1920,210,1890,210C1860,210,1830,210,1800,210C1770,210,1740,210,1710,210C1680,210,1650,210,1620,210C1590,210,1560,210,1530,210C1500,210,1470,210,1440,210C1410,210,1380,210,1350,210C1320,210,1290,210,1260,210C1230,210,1200,210,1170,210C1140,210,1110,210,1080,210C1050,210,1020,210,990,210C960,210,930,210,900,210C870,210,840,210,810,210C780,210,750,210,720,210C690,210,660,210,630,210C600,210,570,210,540,210C510,210,480,210,450,210C420,210,390,210,360,210C330,210,300,210,270,210C240,210,210,210,180,210C150,210,120,210,90,210C60,210,30,210,15,210L0,210Z"/></svg>